<?xml version="1.0" encoding="UTF-8" standalone="no"?>
<!-- Created with Inkscape (http://www.inkscape.org/) -->

<svg
   width="2in"
   height="3in"
   viewBox="0 0 50.800001 76.200002"
   version="1.1"
   id="svg5"
   inkscape:version="1.1 (c4e8f9ed74, 2021-05-24)"
   sodipodi:docname="ace_of_clubs.svg"
   xmlns:inkscape="http://www.inkscape.org/namespaces/inkscape"
   xmlns:sodipodi="http://sodipodi.sourceforge.net/DTD/sodipodi-0.dtd"
   xmlns="http://www.w3.org/2000/svg"
   xmlns:svg="http://www.w3.org/2000/svg">
  <sodipodi:namedview
     id="namedview7"
     pagecolor="#505050"
     bordercolor="#eeeeee"
     borderopacity="1"
     inkscape:pageshadow="0"
     inkscape:pageopacity="0"
     inkscape:pagecheckerboard="0"
     inkscape:document-units="mm"
     showgrid="false"
     units="in"
     width="2in"
     inkscape:zoom="2.5629015"
     inkscape:cx="119.78611"
     inkscape:cy="139.10016"
     inkscape:window-width="1920"
     inkscape:window-height="1015"
     inkscape:window-x="0"
     inkscape:window-y="0"
     inkscape:window-maximized="1"
     inkscape:current-layer="layer1"
     inkscape:snap-global="true" />
  <defs
     id="defs2">
    <inkscape:path-effect
       effect="fillet_chamfer"
       id="path-effect1774"
       is_visible="true"
       lpeversion="1"
       satellites_param="F,0,0,1,0,1.3229167,0,1 @ F,0,0,1,0,1.3229167,0,1 @ F,0,0,1,0,1.3229167,0,1 @ F,0,0,1,0,1.3229167,0,1"
       unit="px"
       method="auto"
       mode="F"
       radius="5"
       chamfer_steps="1"
       flexible="false"
       use_knot_distance="true"
       apply_no_radius="true"
       apply_with_radius="true"
       only_selected="false"
       hide_knots="false" />
    <inkscape:path-effect
       effect="bspline"
       id="path-effect1559"
       is_visible="true"
       lpeversion="1"
       weight="33.333333"
       steps="2"
       helper_size="0"
       apply_no_weight="true"
       apply_with_weight="true"
       only_selected="false" />
    <inkscape:path-effect
       effect="bspline"
       id="path-effect414"
       is_visible="true"
       lpeversion="1"
       weight="33.333333"
       steps="2"
       helper_size="0"
       apply_no_weight="true"
       apply_with_weight="true"
       only_selected="false" />
  </defs>
  <g
     inkscape:label="Layer 1"
     inkscape:groupmode="layer"
     id="layer1">
    <path
       style="fill:#ffffe1;fill-opacity:1;stroke-width:0.264583"
       id="rect846"
       width="50.799999"
       height="76.199997"
       x="0"
       y="0"
       inkscape:path-effect="#path-effect1774"
       d="M 1.3229167,0 H 49.477083 a 1.3229167,1.3229167 45 0 1 1.322916,1.3229167 V 74.87708 a 1.3229167,1.3229167 135 0 1 -1.322916,1.322917 H 1.3229167 A 1.3229167,1.3229167 45 0 1 0,74.87708 V 1.3229167 A 1.3229167,1.3229167 135 0 1 1.3229167,0 Z"
       sodipodi:type="rect" />
    <text
       xml:space="preserve"
       style="font-style:normal;font-weight:normal;font-size:7.48547px;line-height:1.25;font-family:sans-serif;fill:#000000;fill-opacity:1;stroke:none;stroke-width:0.311894"
       x="2.9415553"
       y="8.4569016"
       id="text3791"
       transform="scale(0.99998821,1.0000118)"><tspan
         sodipodi:role="line"
         id="tspan3789"
         style="font-size:7.48547px;stroke-width:0.311894"
         x="2.9415553"
         y="8.4569016">A</tspan></text>
    <g
       inkscape:label="Layer 1"
       id="layer1-5"
       transform="matrix(0.72933439,0,0,0.72933439,7.1673281,19.141331)">
      <path
         style="fill:#000000;stroke-width:0.122804"
         d="m 77.882296,186.07946 c 4.014925,-8.45744 7.70958,-18.44886 9.297895,-25.14422 1.775254,-7.48337 2.958282,-18.22353 2.958282,-26.85684 v -2.38275 l 1.251383,-1.55969 c 2.234591,-2.78514 2.533272,-3.09475 2.985492,-3.09475 0.334731,0 0.527519,0.1353 1.182347,0.82976 0.430321,0.45637 1.315209,1.4834 1.966415,2.28229 l 1.184012,1.45252 0.07892,2.7834 c 0.314163,11.08037 1.244378,19.2729 3.028098,26.66887 1.39829,5.79786 4.17694,13.66843 7.4571,21.12236 0.88354,2.0078 2.67057,5.78761 3.00127,6.34811 l 0.23963,0.40614 H 94.520007 76.526869 Z"
         id="path1493"
         transform="scale(0.26458333)" />
      <rect
         style="fill:#000000;stroke-width:0.264583"
         id="rect1954"
         width="2.2821803"
         height="1.8668283"
         x="23.849138"
         y="32.977646" />
      <circle
         style="fill:#000000;stroke-width:0.264583"
         id="path953"
         cx="35"
         cy="29"
         r="10" />
      <circle
         style="fill:#000000;stroke-width:0.264583"
         id="path953-3"
         cx="15"
         cy="29"
         r="10" />
      <circle
         style="fill:#000000;stroke-width:0.264583"
         id="path953-6"
         cx="25"
         cy="12"
         r="10" />
      <circle
         style="fill:#000000;stroke-width:0.198438"
         id="path953-6-5"
         cx="25"
         cy="26.5"
         r="7.5" />
    </g>
    <g
       inkscape:label="Layer 1"
       id="layer1-5-3"
       transform="matrix(0.11669098,0,0,0.1166935,2.5165451,9.766613)">
      <path
         style="fill:#000000;stroke-width:0.122804"
         d="m 77.882296,186.07946 c 4.014925,-8.45744 7.70958,-18.44886 9.297895,-25.14422 1.775254,-7.48337 2.958282,-18.22353 2.958282,-26.85684 v -2.38275 l 1.251383,-1.55969 c 2.234591,-2.78514 2.533272,-3.09475 2.985492,-3.09475 0.334731,0 0.527519,0.1353 1.182347,0.82976 0.430321,0.45637 1.315209,1.4834 1.966415,2.28229 l 1.184012,1.45252 0.07892,2.7834 c 0.314163,11.08037 1.244378,19.2729 3.028098,26.66887 1.39829,5.79786 4.17694,13.66843 7.4571,21.12236 0.88354,2.0078 2.67057,5.78761 3.00127,6.34811 l 0.23963,0.40614 H 94.520007 76.526869 Z"
         id="path1493-5"
         transform="scale(0.26458333)" />
      <rect
         style="fill:#000000;stroke-width:0.264583"
         id="rect1954-6"
         width="2.2821803"
         height="1.8668283"
         x="23.849138"
         y="32.977646" />
      <circle
         style="fill:#000000;stroke-width:0.264583"
         id="path953-2"
         cx="35"
         cy="29"
         r="10" />
      <circle
         style="fill:#000000;stroke-width:0.264583"
         id="path953-3-9"
         cx="15"
         cy="29"
         r="10" />
      <circle
         style="fill:#000000;stroke-width:0.264583"
         id="path953-6-1"
         cx="25"
         cy="12"
         r="10" />
      <circle
         style="fill:#000000;stroke-width:0.198438"
         id="path953-6-5-2"
         cx="25"
         cy="26.5"
         r="7.5" />
    </g>
    <text
       xml:space="preserve"
       style="font-style:normal;font-weight:normal;font-size:7.48547px;line-height:1.25;font-family:sans-serif;fill:#000000;fill-opacity:1;stroke:none;stroke-width:0.311894"
       x="43.242031"
       y="-67.742203"
       id="text3791-7"
       transform="scale(0.99998821,-1.0000118)"><tspan
         sodipodi:role="line"
         id="tspan3789-0"
         style="font-size:7.48547px;stroke-width:0.311894"
         x="43.242031"
         y="-67.742203">A</tspan></text>
    <g
       inkscape:label="Layer 1"
       id="layer1-5-3-9"
       transform="matrix(0.11669098,0,0,-0.1166935,42.816545,66.433387)">
      <path
         style="fill:#000000;stroke-width:0.122804"
         d="m 77.882296,186.07946 c 4.014925,-8.45744 7.70958,-18.44886 9.297895,-25.14422 1.775254,-7.48337 2.958282,-18.22353 2.958282,-26.85684 v -2.38275 l 1.251383,-1.55969 c 2.234591,-2.78514 2.533272,-3.09475 2.985492,-3.09475 0.334731,0 0.527519,0.1353 1.182347,0.82976 0.430321,0.45637 1.315209,1.4834 1.966415,2.28229 l 1.184012,1.45252 0.07892,2.7834 c 0.314163,11.08037 1.244378,19.2729 3.028098,26.66887 1.39829,5.79786 4.17694,13.66843 7.4571,21.12236 0.88354,2.0078 2.67057,5.78761 3.00127,6.34811 l 0.23963,0.40614 H 94.520007 76.526869 Z"
         id="path1493-5-3"
         transform="scale(0.26458333)" />
      <rect
         style="fill:#000000;stroke-width:0.264583"
         id="rect1954-6-6"
         width="2.2821803"
         height="1.8668283"
         x="23.849138"
         y="32.977646" />
      <circle
         style="fill:#000000;stroke-width:0.264583"
         id="path953-2-0"
         cx="35"
         cy="29"
         r="10" />
      <circle
         style="fill:#000000;stroke-width:0.264583"
         id="path953-3-9-6"
         cx="15"
         cy="29"
         r="10" />
      <circle
         style="fill:#000000;stroke-width:0.264583"
         id="path953-6-1-2"
         cx="25"
         cy="12"
         r="10" />
      <circle
         style="fill:#000000;stroke-width:0.198438"
         id="path953-6-5-2-6"
         cx="25"
         cy="26.5"
         r="7.5" />
    </g>
  </g>
</svg>
