<?xml version="1.0" encoding="UTF-8" standalone="no"?>
<!-- Created with Inkscape (http://www.inkscape.org/) -->

<svg
   width="2in"
   height="3in"
   viewBox="0 0 50.800001 76.200002"
   version="1.1"
   id="svg5"
   inkscape:version="1.1 (c4e8f9ed74, 2021-05-24)"
   sodipodi:docname="ace_of_hearts.svg"
   xmlns:inkscape="http://www.inkscape.org/namespaces/inkscape"
   xmlns:sodipodi="http://sodipodi.sourceforge.net/DTD/sodipodi-0.dtd"
   xmlns="http://www.w3.org/2000/svg"
   xmlns:svg="http://www.w3.org/2000/svg">
  <sodipodi:namedview
     id="namedview7"
     pagecolor="#505050"
     bordercolor="#eeeeee"
     borderopacity="1"
     inkscape:pageshadow="0"
     inkscape:pageopacity="0"
     inkscape:pagecheckerboard="0"
     inkscape:document-units="mm"
     showgrid="false"
     units="in"
     width="2in"
     inkscape:zoom="2.5629015"
     inkscape:cx="93.643864"
     inkscape:cy="139.10016"
     inkscape:window-width="1920"
     inkscape:window-height="1015"
     inkscape:window-x="0"
     inkscape:window-y="0"
     inkscape:window-maximized="1"
     inkscape:current-layer="layer1" />
  <defs
     id="defs2">
    <inkscape:path-effect
       effect="fillet_chamfer"
       id="path-effect1774"
       is_visible="true"
       lpeversion="1"
       satellites_param="F,0,0,1,0,1.3229167,0,1 @ F,0,0,1,0,1.3229167,0,1 @ F,0,0,1,0,1.3229167,0,1 @ F,0,0,1,0,1.3229167,0,1"
       unit="px"
       method="auto"
       mode="F"
       radius="5"
       chamfer_steps="1"
       flexible="false"
       use_knot_distance="true"
       apply_no_radius="true"
       apply_with_radius="true"
       only_selected="false"
       hide_knots="false" />
    <inkscape:path-effect
       effect="bspline"
       id="path-effect1559"
       is_visible="true"
       lpeversion="1"
       weight="33.333333"
       steps="2"
       helper_size="0"
       apply_no_weight="true"
       apply_with_weight="true"
       only_selected="false" />
    <inkscape:path-effect
       effect="bspline"
       id="path-effect414"
       is_visible="true"
       lpeversion="1"
       weight="33.333333"
       steps="2"
       helper_size="0"
       apply_no_weight="true"
       apply_with_weight="true"
       only_selected="false" />
  </defs>
  <g
     inkscape:label="Layer 1"
     inkscape:groupmode="layer"
     id="layer1">
    <path
       style="fill:#ffffe1;fill-opacity:1;stroke-width:0.264583"
       id="rect846"
       width="50.799999"
       height="76.199997"
       x="0"
       y="0"
       inkscape:path-effect="#path-effect1774"
       d="M 1.3229167,0 H 49.477083 a 1.3229167,1.3229167 45 0 1 1.322916,1.3229167 V 74.87708 a 1.3229167,1.3229167 135 0 1 -1.322916,1.322917 H 1.3229167 A 1.3229167,1.3229167 45 0 1 0,74.87708 V 1.3229167 A 1.3229167,1.3229167 135 0 1 1.3229167,0 Z"
       sodipodi:type="rect" />
    <text
       xml:space="preserve"
       style="font-style:normal;font-weight:normal;font-size:7.48547px;line-height:1.25;font-family:sans-serif;fill:#d10000;fill-opacity:1;stroke:none;stroke-width:0.311894"
       x="2.9415553"
       y="8.4569016"
       id="text3791"
       transform="scale(0.99998821,1.0000118)"><tspan
         sodipodi:role="line"
         id="tspan3789"
         style="font-size:7.48547px;stroke-width:0.311894;fill:#d10000;fill-opacity:1"
         x="2.9415553"
         y="8.4569016">A</tspan></text>
    <path
       style="fill:#d10000;fill-opacity:1;stroke:none;stroke-width:0.0424053"
       d="m 33.846399,23.111549 c 1.395096,0.11608 2.655031,0.440178 3.596395,0.925115 1.992879,1.026623 2.959848,3.053949 2.957201,6.199994 -0.0013,1.578774 -0.226739,2.926452 -0.739216,4.419596 -0.992017,2.890329 -2.745722,5.179244 -6.879979,8.979655 -0.42328,0.3891 -1.20472,1.107398 -1.736532,1.596218 -1.497759,1.376675 -1.973157,1.853764 -2.782663,2.792567 -1.323822,1.535263 -2.004213,2.695051 -2.62111,4.467908 -0.226754,0.651662 -0.238076,0.673727 -0.279762,0.545353 -0.694447,-2.138533 -1.409966,-3.419449 -2.8224,-5.052624 -0.68664,-0.79395 -1.369803,-1.46685 -3.13672,-3.089608 -3.95894,-3.635936 -5.238046,-4.971575 -6.504716,-6.792211 -2.005109,-2.88203 -2.892089,-6.628535 -2.331697,-9.848835 0.434493,-2.496832 1.646565,-3.94622 3.903085,-4.667289 1.837158,-0.587061 3.863964,-0.646911 5.505593,-0.162575 1.649787,0.486743 2.851708,1.431409 4.64458,3.650476 0.51206,0.633785 0.727349,0.871199 0.76088,0.839072 0.02816,-0.02699 0.06131,-0.02827 0.08331,-0.0033 0.0222,0.02523 0.190882,-0.155426 0.429703,-0.460188 0.574733,-0.733429 1.446432,-1.730393 1.876182,-2.145795 0.500934,-0.484211 1.217375,-1.033282 1.709628,-1.310237 0.70354,-0.39583 1.61896,-0.694452 2.510803,-0.819053 0.373057,-0.05212 1.524503,-0.09195 1.85743,-0.06425 z"
       id="path1599" />
    <path
       style="fill:#d10000;fill-opacity:1;stroke:none;stroke-width:0.00706755"
       d="m 6.907733,10.001926 c 0.2325159,0.01935 0.4425055,0.07336 0.5993992,0.154185 0.3321464,0.171104 0.493308,0.508991 0.4928669,1.033333 -2.17e-4,0.26313 -0.037786,0.487742 -0.1232025,0.736598 -0.1653366,0.481722 -0.4576205,0.863209 -1.1466634,1.49661 -0.070546,0.06485 -0.2007866,0.184567 -0.2894218,0.266037 -0.2496265,0.229446 -0.3288597,0.30896 -0.4637772,0.465427 -0.2206371,0.255878 -0.3340355,0.449175 -0.4368517,0.744651 -0.037791,0.108613 -0.03968,0.112288 -0.046626,0.09089 C 5.3777142,14.633237 5.2584611,14.419751 5.0230555,14.147556 4.9086155,14.015231 4.794755,13.903081 4.5002689,13.632621 3.8404456,13.026632 3.6272612,12.804026 3.4161495,12.500586 3.0819647,12.020249 2.9341347,11.39583 3.0275334,10.859114 c 0.072415,-0.416139 0.2744275,-0.657703 0.6505141,-0.777882 0.3061931,-0.097843 0.643994,-0.1078183 0.9175989,-0.0271 0.2749643,0.08113 0.4752845,0.238569 0.7740966,0.608413 0.085344,0.105625 0.121225,0.1452 0.1268132,0.139846 0.0047,-0.0045 0.010213,-0.0047 0.013885,-5.5e-4 0.0037,0.0043 0.031814,-0.0259 0.071618,-0.0767 0.095789,-0.122237 0.241072,-0.2884 0.312697,-0.357632 0.083489,-0.0807 0.2028959,-0.172215 0.284938,-0.218374 0.1172563,-0.06597 0.2698267,-0.115738 0.4184672,-0.136509 0.062176,-0.0086 0.2540837,-0.015321 0.3095716,-0.01075 z"
       id="path1599-3" />
    <text
       xml:space="preserve"
       style="font-style:normal;font-weight:normal;font-size:7.48547px;line-height:1.25;font-family:sans-serif;fill:#d10000;fill-opacity:1;stroke:none;stroke-width:0.311894"
       x="42.742023"
       y="-67.742203"
       id="text3791-5"
       transform="scale(0.99998821,-1.0000118)"><tspan
         sodipodi:role="line"
         id="tspan3789-6"
         style="font-size:7.48547px;fill:#d10000;fill-opacity:1;stroke-width:0.311894"
         x="42.742023"
         y="-67.742203">A</tspan></text>
    <path
       style="fill:#d10000;fill-opacity:1;stroke:none;stroke-width:0.00706755"
       d="m 46.721821,66.198075 c 0.232516,-0.01935 0.442506,-0.07336 0.5994,-0.154185 0.332146,-0.171104 0.493308,-0.508991 0.492866,-1.033333 -2.17e-4,-0.26313 -0.03779,-0.487742 -0.123202,-0.736598 -0.165337,-0.481722 -0.457621,-0.863209 -1.146663,-1.496611 -0.07055,-0.06485 -0.200787,-0.184567 -0.289422,-0.266037 -0.249627,-0.229446 -0.32886,-0.30896 -0.463777,-0.465427 -0.220638,-0.255878 -0.334036,-0.449175 -0.436852,-0.744651 -0.03779,-0.108613 -0.03968,-0.112288 -0.04663,-0.09089 -0.115742,0.35642 -0.234996,0.569906 -0.470401,0.842101 -0.11444,0.132325 -0.228301,0.244475 -0.522787,0.514935 -0.659823,0.60599 -0.873007,0.828596 -1.084119,1.132036 -0.334185,0.480337 -0.482015,1.104756 -0.388616,1.641472 0.07241,0.416139 0.274427,0.657703 0.650514,0.777882 0.306193,0.09784 0.643994,0.107819 0.917599,0.0271 0.274964,-0.08113 0.475284,-0.238569 0.774096,-0.608413 0.08534,-0.105625 0.121225,-0.1452 0.126814,-0.139846 0.0047,0.0045 0.01021,0.0047 0.01389,5.5e-4 0.0037,-0.0043 0.03181,0.0259 0.07162,0.0767 0.09579,0.122237 0.241072,0.2884 0.312697,0.357632 0.08349,0.0807 0.202895,0.172215 0.284938,0.218374 0.117256,0.06597 0.269826,0.115738 0.418467,0.136509 0.06218,0.0086 0.254083,0.01532 0.309571,0.01075 z"
       id="path1599-3-2" />
  </g>
</svg>
