<?xml version="1.0" encoding="UTF-8" standalone="no"?>
<!-- Created with Inkscape (http://www.inkscape.org/) -->

<svg
   width="50mm"
   height="50mm"
   viewBox="0 0 50 50"
   version="1.1"
   id="svg5"
   sodipodi:docname="spades.svg"
   inkscape:version="1.1 (c4e8f9ed74, 2021-05-24)"
   xmlns:inkscape="http://www.inkscape.org/namespaces/inkscape"
   xmlns:sodipodi="http://sodipodi.sourceforge.net/DTD/sodipodi-0.dtd"
   xmlns="http://www.w3.org/2000/svg"
   xmlns:svg="http://www.w3.org/2000/svg">
  <sodipodi:namedview
     id="namedview7"
     pagecolor="#505050"
     bordercolor="#eeeeee"
     borderopacity="1"
     inkscape:pageshadow="0"
     inkscape:pageopacity="0"
     inkscape:pagecheckerboard="0"
     inkscape:document-units="mm"
     showgrid="false"
     inkscape:zoom="4.3696159"
     inkscape:cx="67.282801"
     inkscape:cy="117.51605"
     inkscape:window-width="1920"
     inkscape:window-height="1015"
     inkscape:window-x="0"
     inkscape:window-y="0"
     inkscape:window-maximized="1"
     inkscape:current-layer="layer1" />
  <defs
     id="defs2">
    <inkscape:path-effect
       effect="bspline"
       id="path-effect1559"
       is_visible="true"
       lpeversion="1"
       weight="33.333333"
       steps="2"
       helper_size="0"
       apply_no_weight="true"
       apply_with_weight="true"
       only_selected="false" />
    <inkscape:path-effect
       effect="bspline"
       id="path-effect414"
       is_visible="true"
       lpeversion="1"
       weight="33.333333"
       steps="2"
       helper_size="0"
       apply_no_weight="true"
       apply_with_weight="true"
       only_selected="false" />
  </defs>
  <g
     inkscape:label="Layer 1"
     inkscape:groupmode="layer"
     id="layer1">
    <path
       style="fill:#000000;stroke:none;stroke-width:0.0565403"
       d="m 13.738135,39.9846 c -1.860129,-0.154771 -3.540041,-0.586903 -4.7951934,-1.233487 -2.657172,-1.36883 -3.9464651,-4.071932 -3.9429344,-8.266659 0.00175,-2.105031 0.3023193,-3.901933 0.9856206,-5.892793 1.3226889,-3.853774 3.6609647,-6.905659 9.1733062,-11.972874 0.564373,-0.5188 1.606292,-1.476529 2.315376,-2.128289 1.997012,-1.8355652 2.630875,-2.4716868 3.710217,-3.723423 1.765096,-2.047017 2.672283,-3.593401 3.494811,-5.95720972 0.302341,-0.86888485 0.317436,-0.89830377 0.373018,-0.72713778 0.92593,2.8513773 1.879956,4.5592661 3.763201,6.7368321 0.915517,1.0585996 1.826404,1.955802 4.182293,4.1194774 5.278587,4.847914 6.984061,6.628765 8.672954,9.056279 2.673478,3.842707 3.85612,8.838047 3.108928,13.13178 -0.579323,3.32911 -2.195419,5.261627 -5.204112,6.223054 -2.449544,0.782747 -5.151953,0.862547 -7.340792,0.216765 -2.199714,-0.648991 -3.802276,-1.908547 -6.192771,-4.867299 -0.682747,-0.845049 -0.969801,-1.1616 -1.014507,-1.118764 -0.03754,0.03598 -0.08174,0.0377 -0.111088,0.0044 -0.0296,-0.03365 -0.254511,0.207237 -0.572937,0.613585 -0.76631,0.977904 -1.928576,2.30719 -2.501575,2.86106 -0.667912,0.645615 -1.623168,1.37771 -2.279505,1.746983 -0.938053,0.527773 -2.158612,0.925937 -3.347737,1.092073 -0.49741,0.0695 -2.032671,0.122605 -2.476573,0.08567 z"
       id="path1599" />
    <path
       style="fill:#000000;stroke-width:0.122804"
       d="m 77.882296,186.07946 c 4.014925,-8.45744 7.70958,-18.44886 9.297895,-25.14422 1.775254,-7.48337 2.958282,-18.22353 2.958282,-26.85684 v -2.38275 l 1.251383,-1.55969 c 2.234591,-2.78514 2.533272,-3.09475 2.985492,-3.09475 0.334731,0 0.527519,0.1353 1.182347,0.82976 0.430321,0.45637 1.315209,1.4834 1.966415,2.28229 l 1.184012,1.45252 0.07892,2.7834 c 0.314163,11.08037 1.244378,19.2729 3.028098,26.66887 1.39829,5.79786 4.17694,13.66843 7.4571,21.12236 0.88354,2.0078 2.67057,5.78761 3.00127,6.34811 l 0.23963,0.40614 H 94.520007 76.526869 Z"
       id="path1493"
       transform="scale(0.26458333)" />
    <rect
       style="fill:#000000;stroke-width:0.264583"
       id="rect1954"
       width="2.2821803"
       height="1.8668283"
       x="23.849138"
       y="32.977646" />
  </g>
</svg>
